<?xml version="1.0" encoding="UTF-8" standalone="no"?>
<!DOCTYPE svg PUBLIC "-//W3C//DTD SVG 1.1//EN" "http://www.w3.org/Graphics/SVG/1.1/DTD/svg11.dtd">
<svg version="1.1" xmlns="http://www.w3.org/2000/svg" xmlns:xlink="http://www.w3.org/1999/xlink" preserveAspectRatio="xMidYMid meet" viewBox="0 0 640 640" width="640" height="640"><defs><path d="M338.95 547.35L337.97 546.56L336.94 545.81L335.86 545.11L334.74 544.46L333.58 543.85L332.37 543.3L331.12 542.79L329.84 542.34L328.52 541.94L327.17 541.59L325.79 541.31L324.38 541.09L322.94 540.92L321.48 540.82L320 540.79L318.52 540.82L317.06 540.92L315.62 541.09L314.21 541.31L312.83 541.59L311.48 541.94L310.16 542.34L308.88 542.79L307.63 543.3L306.42 543.85L305.26 544.46L304.14 545.11L303.06 545.81L302.03 546.56L301.05 547.35L300.41 547.92L300.41 447.6L304.6 446.32L317.41 442.14L330.28 437.7L339.59 434.31L339.59 547.92L338.95 547.35ZM339.59 191.01L339.59 416.88L337.75 417.59L325.58 422.02L313.47 426.22L301.43 430.18L300.41 430.5L300.41 166.26L320.21 178.6L339.59 191.01ZM325.46 165.27L300.41 149.75L300.41 25.75L339.59 25.75L339.59 174.28L325.46 165.27Z" id="bl0qMt9vT"></path><path d="M339.59 25.75C339.59 34.45 330.81 41.51 320 41.51C309.19 41.51 300.41 34.45 300.41 25.75C300.41 17.06 309.19 10 320 10C330.81 10 339.59 17.06 339.59 25.75Z" id="eLo7c14JX"></path><path d="M339.59 561.8C339.59 570.49 330.81 577.55 320 577.55C309.19 577.55 300.41 570.49 300.41 561.8C300.41 553.1 309.19 546.04 320 546.04C330.81 546.04 339.59 553.1 339.59 561.8Z" id="gBOp7FwCg"></path><path d="M310.21 597.1L300.41 564.19L320 564.19L339.59 564.19L329.79 597.1L320 630L310.21 597.1Z" id="d3OEVgQid"></path><path d="M578.82 136.55L585.28 139.21L591.34 142.11L597.02 145.26L602.28 148.65L607.13 152.28L611.54 156.16L615.52 160.28L619.04 164.65L622.1 169.25L624.68 174.1L626.78 179.2L628.36 184.48L629.42 189.9L629.96 195.44L630 201.11L629.54 206.89L628.58 212.77L627.15 218.76L625.24 224.83L622.86 230.98L620.03 237.2L616.75 243.49L613.03 249.84L608.88 256.24L604.31 262.69L599.32 269.16L593.93 275.67L588.13 282.19L581.95 288.73L575.39 295.27L568.46 301.8L561.16 308.32L553.51 314.83L545.51 321.3L537.17 327.75L528.5 334.14L519.51 340.49L510.21 346.78L500.61 353.01L490.7 359.16L480.51 365.22L470.05 371.2L459.31 377.08L448.3 382.86L437.05 388.53L425.55 394.07L413.81 399.48L401.85 404.76L389.66 409.9L377.26 414.89L364.66 419.71L351.99 424.33L339.37 428.68L326.82 432.79L314.34 436.64L301.96 440.23L289.68 443.57L277.51 446.66L265.46 449.49L253.55 452.07L241.79 454.39L230.18 456.47L218.74 458.29L207.49 459.86L196.42 461.17L185.56 462.24L174.91 463.06L164.49 463.62L154.31 463.94L144.37 464L134.69 463.82L125.29 463.39L116.17 462.7L107.34 461.78L98.82 460.6L90.61 459.17L82.73 457.5L75.19 455.59L68 453.42L61.18 451.01L54.72 448.35L48.66 445.45L42.98 442.31L37.72 438.92L32.87 435.28L28.46 431.4L24.48 427.28L20.96 422.92L17.9 418.31L15.32 413.46L13.22 408.37L11.64 403.08L10.58 397.67L10.04 392.12L10 386.45L10.46 380.67L11.42 374.79L12.85 368.81L14.76 362.74L17.14 356.58L19.97 350.36L23.25 344.07L26.97 337.72L31.12 331.32L35.69 324.88L40.68 318.4L46.07 311.89L51.87 305.37L58.05 298.84L64.61 292.3L71.54 285.76L78.84 279.24L86.49 272.74L94.49 266.26L102.83 259.82L111.5 253.42L118.27 248.64L122.72 253.48L117.6 257.05L109.12 263.22L100.96 269.43L93.13 275.67L85.64 281.93L78.49 288.21L71.7 294.49L65.27 300.78L59.21 307.06L53.53 313.32L48.23 319.56L43.33 325.78L38.83 331.96L34.75 338.09L31.08 344.17L27.84 350.19L25.04 356.15L22.68 362.03L20.78 367.83L19.33 373.54L18.36 379.16L17.86 384.67L17.85 390.07L18.34 395.35L19.32 400.51L20.82 405.53L22.82 410.36L25.29 414.96L28.23 419.33L31.62 423.46L35.45 427.35L39.72 431.01L44.4 434.44L49.49 437.62L54.98 440.57L60.86 443.29L67.11 445.77L73.73 448.01L80.7 450.01L88.02 451.77L95.66 453.3L103.63 454.59L111.91 455.64L120.48 456.45L129.35 457.03L138.49 457.36L147.89 457.45L157.55 457.31L167.46 456.92L177.6 456.3L187.96 455.43L198.52 454.33L209.29 452.98L220.25 451.39L231.39 449.56L242.69 447.49L254.14 445.17L265.74 442.62L277.48 439.82L289.34 436.78L301.3 433.49L313.37 429.96L325.53 426.19L337.77 422.18L350.07 417.92L362.43 413.41L374.72 408.71L386.81 403.86L398.7 398.86L410.38 393.73L421.83 388.47L433.06 383.09L444.04 377.6L454.79 372.01L465.27 366.31L475.5 360.53L485.46 354.66L495.13 348.72L504.52 342.71L513.61 336.63L522.4 330.51L530.88 324.34L539.04 318.13L546.87 311.89L554.36 305.63L561.51 299.36L568.3 293.07L574.73 286.79L580.79 280.51L586.47 274.24L591.77 268L596.67 261.78L601.17 255.61L605.25 249.47L608.92 243.39L612.16 237.37L614.96 231.41L617.32 225.53L619.22 219.73L620.67 214.02L621.64 208.4L622.14 202.89L622.15 197.49L621.66 192.21L620.68 187.06L619.18 182.03L617.18 177.2L614.71 172.6L611.77 168.23L608.38 164.1L604.55 160.21L600.28 156.55L595.6 153.13L590.51 149.94L585.02 146.99L579.14 144.27L572.89 141.8L566.27 139.56L559.3 137.55L551.98 135.79L549.82 135.36L549.87 134.97L550.09 132.81L550.22 130.62L550.26 128.57L557.27 130.06L564.81 131.98L572 134.14L572 134.14L578.82 136.55ZM265.28 178.85L253.19 183.7L241.3 188.7L229.62 193.83L218.17 199.09L206.94 204.47L195.96 209.96L185.21 215.56L174.73 221.25L164.5 227.04L154.54 232.9L144.87 238.85L135.48 244.86L134.61 245.44L130.12 240.56L139.39 234.56L149.3 228.41L159.49 222.34L169.95 216.36L180.69 210.48L191.7 204.7L202.95 199.04L214.45 193.49L226.19 188.08L238.15 182.8L250.34 177.66L262.74 172.68L275.34 167.85L288.01 163.24L293.88 161.21L293.88 168.28L289.93 169.65L277.57 174.15L277.57 174.15L265.28 178.85ZM445.96 132.77L441.48 133.24L430.71 134.59L419.75 136.17L408.61 138L397.31 140.08L385.86 142.39L374.26 144.95L362.52 147.75L350.66 150.79L346.12 152.04L346.12 145.14L350.32 143.99L362.49 140.91L374.54 138.07L386.45 135.5L398.21 133.17L409.82 131.1L421.26 129.28L432.51 127.71L443.58 126.39L445.84 126.17L445.84 126.2L445.79 128.41L445.84 130.62L445.84 130.62L445.96 132.77Z" id="b2BkDVfKpL"></path><path d="M542.87 356.97L548.78 364.48L554.34 371.88L559.57 379.15L564.45 386.29L568.97 393.29L573.13 400.14L576.92 406.84L580.33 413.36L583.36 419.71L586.01 425.88L588.25 431.85L590.1 437.62L591.53 443.18L592.55 448.52L593.14 453.63L593.3 458.51L593.03 463.13L592.31 467.51L591.14 471.61L589.52 475.45L587.43 479L584.89 482.23L581.93 485.11L578.57 487.64L574.82 489.83L570.67 491.68L566.15 493.19L561.27 494.36L556.03 495.21L550.45 495.73L544.54 495.92L538.3 495.8L531.75 495.36L524.9 494.61L517.75 493.55L510.33 492.18L502.63 490.51L494.67 488.55L486.47 486.29L478.02 483.73L469.35 480.89L460.45 477.77L451.35 474.37L442.05 470.69L432.56 466.73L422.9 462.51L413.07 458.02L403.08 453.26L392.95 448.25L382.69 442.98L372.29 437.46L361.79 431.69L354.96 427.82L362 425.19L363.02 425.77L373.28 431.47L383.43 436.93L393.45 442.15L403.34 447.12L413.08 451.84L422.67 456.31L432.09 460.53L441.34 464.48L450.4 468.16L459.26 471.58L467.92 474.73L476.36 477.6L484.57 480.19L492.55 482.51L500.28 484.53L507.75 486.27L514.96 487.71L521.89 488.86L528.53 489.7L534.87 490.25L540.91 490.48L546.62 490.41L552.01 490.02L557.06 489.31L561.76 488.28L566.1 486.93L570.08 485.25L573.67 483.23L576.88 480.88L579.68 478.19L582.08 475.16L584.03 471.81L585.54 468.18L586.6 464.29L587.21 460.13L587.39 455.73L587.15 451.07L586.48 446.19L585.4 441.08L583.92 435.75L582.03 430.21L579.75 424.47L577.08 418.54L574.04 412.43L570.62 406.14L566.83 399.68L562.69 393.07L558.19 386.31L553.34 379.41L548.16 372.37L542.64 365.21L536.8 357.94L530.64 350.56L524.74 343.76L529.09 340.51L530.09 341.65L536.64 349.36L536.64 349.36L542.87 356.97ZM256.4 356.47L267.15 364.29L277.99 371.98L288.81 379.47L294.85 383.54L294.85 390.65L285.93 384.64L274.89 377.01L263.82 369.17L252.85 361.18L242.09 353.14L231.54 345.06L226.79 341.33L227.38 340.7L228.39 339.54L229.34 338.35L230.26 337.12L230.5 336.77L235.5 340.68L245.85 348.59L245.85 348.59L256.4 356.47ZM115.1 79.06L122.25 80.12L129.67 81.49L137.37 83.16L145.33 85.12L153.53 87.38L161.98 89.94L170.65 92.78L179.55 95.9L188.65 99.3L197.95 102.98L207.44 106.94L217.1 111.16L226.93 115.65L236.92 120.41L247.05 125.42L257.31 130.69L267.71 136.21L278.21 141.98L288.82 147.99L299.52 154.25L310.31 160.74L321.17 167.47L332.09 174.43L343.06 181.62L354.07 189.03L365.11 196.66L376.18 204.5L387.15 212.49L397.91 220.53L408.46 228.61L418.79 236.73L428.9 244.88L438.78 253.05L448.41 261.23L457.8 269.41L466.93 277.59L475.81 285.75L484.42 293.88L492.76 301.98L500.81 310.03L508.58 318.04L516.05 325.98L517.62 327.7L513.2 331L510.3 327.88L502.93 320.16L495.28 312.38L487.34 304.55L479.13 296.66L470.66 288.75L461.93 280.8L452.95 272.83L443.72 264.85L434.26 256.87L424.56 248.89L414.64 240.93L404.5 232.98L394.15 225.07L383.6 217.2L372.85 209.38L362.01 201.69L351.19 194.2L340.41 186.93L329.67 179.87L318.98 173.02L308.36 166.4L297.81 160L287.35 153.84L276.98 147.9L266.72 142.2L256.57 136.74L246.55 131.52L236.66 126.55L226.92 121.82L217.33 117.36L207.91 113.14L198.66 109.19L189.6 105.51L180.74 102.09L172.08 98.94L163.64 96.07L155.43 93.48L147.45 91.16L139.72 89.14L132.25 87.4L125.04 85.96L118.11 84.81L111.47 83.97L105.13 83.42L99.09 83.19L93.38 83.26L87.99 83.65L82.94 84.36L78.24 85.39L73.9 86.74L69.92 88.42L66.33 90.44L63.12 92.79L60.32 95.48L57.92 98.51L55.97 101.86L54.46 105.49L53.4 109.38L52.79 113.54L52.61 117.94L52.85 122.59L53.52 127.48L54.6 132.59L56.08 137.92L57.97 143.46L60.25 149.2L62.92 155.13L65.96 161.24L69.38 167.53L73.17 173.99L77.31 180.6L81.81 187.36L86.66 194.26L91.84 201.3L97.36 208.45L103.2 215.73L109.36 223.1L115.84 230.58L122.62 238.15L129.7 245.79L137.07 253.51L144.72 261.29L152.66 269.12L160.87 277L169.34 284.92L170.23 285.73L169.91 286.08L168.9 287.23L167.95 288.42L167.03 289.65L166.66 290.19L164.19 287.92L155.58 279.79L147.24 271.69L139.19 263.64L131.42 255.63L123.95 247.69L116.77 239.81L109.91 232.02L103.36 224.31L97.13 216.7L91.22 209.19L85.66 201.79L80.43 194.52L75.55 187.38L71.03 180.38L66.87 173.53L63.08 166.83L59.67 160.31L56.64 153.96L53.99 147.79L51.75 141.82L49.9 136.05L48.47 130.49L47.45 125.15L46.86 120.03L46.7 115.16L46.97 110.53L47.69 106.16L48.86 102.06L50.48 98.22L52.57 94.67L55.11 91.44L58.07 88.56L61.43 86.03L65.18 83.84L69.33 81.99L73.85 80.48L78.73 79.31L83.97 78.46L89.55 77.94L95.46 77.75L101.7 77.87L108.25 78.31L108.25 78.31L115.1 79.06Z" id="c1h2oDUGCu"></path><path d="M543.73 128.41C543.73 154.3 523.25 175.32 498.03 175.32C472.8 175.32 452.32 154.3 452.32 128.41C452.32 102.53 472.8 81.51 498.03 81.51C523.25 81.51 543.73 102.53 543.73 128.41Z" id="b12wNm8UtG"></path><path d="M231.29 313.39C231.29 331.88 216.66 346.89 198.64 346.89C180.63 346.89 166 331.88 166 313.39C166 294.9 180.63 279.88 198.64 279.88C216.66 279.88 231.29 294.9 231.29 313.39Z" id="a1098eAAP7"></path></defs><g><g><g><g><use xlink:href="#bl0qMt9vT" opacity="1" fill="#ffffff" fill-opacity="1"></use></g><g><use xlink:href="#eLo7c14JX" opacity="1" fill="#ffffff" fill-opacity="1"></use></g><g><use xlink:href="#gBOp7FwCg" opacity="1" fill="#ffffff" fill-opacity="1"></use></g><g><use xlink:href="#d3OEVgQid" opacity="1" fill="#ffffff" fill-opacity="1"></use></g><g><use xlink:href="#b2BkDVfKpL" opacity="1" fill="#ffffff" fill-opacity="1"></use></g><g><use xlink:href="#c1h2oDUGCu" opacity="1" fill="#ffffff" fill-opacity="1"></use></g><g><use xlink:href="#b12wNm8UtG" opacity="1" fill="#ffffff" fill-opacity="1"></use></g><g><use xlink:href="#a1098eAAP7" opacity="1" fill="#ffffff" fill-opacity="1"></use></g></g></g></g></svg>